<svg width="869" height="257" viewBox="0 0 869 257" fill="none" xmlns="http://www.w3.org/2000/svg">
<g filter="url(#filter0_d_208_112)">
<rect x="72.3337" y="33.3838" width="724.391" height="113.383" rx="20.9968" fill="#1877F2"/>
<rect width="50.3924" height="50.3924" transform="translate(103.829 64.8791)" fill="#1877F2"/>
<path d="M153.172 90.2222C153.172 76.8865 142.361 66.0758 129.025 66.0758C115.689 66.0758 104.879 76.8865 104.879 90.2222C104.879 102.274 113.709 112.264 125.252 114.075V97.202H119.121V90.2222H125.252V84.9025C125.252 78.8508 128.857 75.508 134.373 75.508C137.015 75.508 139.778 75.9796 139.778 75.9796V81.9219H136.733C133.733 81.9219 132.798 83.7832 132.798 85.6927V90.2222H139.495L138.424 97.202H132.798V114.075C144.342 112.264 153.172 102.274 153.172 90.2222Z" fill="white"/>
<path d="M187.603 88.0131C187.603 82.7366 189.018 78.6698 191.848 75.8128C194.308 73.3249 197.439 72.081 201.239 72.081C206.324 72.081 210.042 73.7487 212.393 77.0841C213.692 78.9569 214.389 80.8365 214.485 82.7229H208.169C207.759 81.2739 207.233 80.1803 206.59 79.4422C205.442 78.1299 203.74 77.4737 201.485 77.4737C199.188 77.4737 197.377 78.4033 196.051 80.2623C194.725 82.1078 194.062 84.7255 194.062 88.1157C194.062 91.5058 194.759 94.0484 196.154 95.7434C197.562 97.4248 199.345 98.2655 201.505 98.2655C203.72 98.2655 205.408 97.541 206.57 96.092C207.212 95.3128 207.746 94.144 208.169 92.5857H214.423C213.876 95.8801 212.475 98.5594 210.22 100.624C207.978 102.688 205.1 103.72 201.587 103.72C197.24 103.72 193.823 102.325 191.335 99.5368C188.847 96.7345 187.603 92.8933 187.603 88.0131ZM228.818 98.7576C230.526 98.7576 231.839 98.1493 232.755 96.9327C233.67 95.7161 234.128 93.9868 234.128 91.745C234.128 89.5031 233.67 87.7807 232.755 86.5778C231.839 85.3612 230.526 84.7529 228.818 84.7529C227.109 84.7529 225.79 85.3612 224.86 86.5778C223.944 87.7807 223.486 89.5031 223.486 91.745C223.486 93.9868 223.944 95.7161 224.86 96.9327C225.79 98.1493 227.109 98.7576 228.818 98.7576ZM240.259 91.745C240.259 95.0257 239.316 97.8349 237.43 100.172C235.543 102.496 232.679 103.658 228.838 103.658C224.997 103.658 222.133 102.496 220.247 100.172C218.36 97.8349 217.417 95.0257 217.417 91.745C217.417 88.5189 218.36 85.7234 220.247 83.3586C222.133 80.9937 224.997 79.8112 228.838 79.8112C232.679 79.8112 235.543 80.9937 237.43 83.3586C239.316 85.7234 240.259 88.5189 240.259 91.745ZM256.848 79.9958C259.158 79.9958 261.044 80.6041 262.507 81.8207C263.983 83.0236 264.721 85.0263 264.721 87.8286V102.879H258.734V89.2844C258.734 88.1088 258.577 87.2066 258.262 86.5778C257.688 85.4295 256.595 84.8554 254.982 84.8554C253 84.8554 251.639 85.6961 250.901 87.3775C250.518 88.266 250.327 89.4006 250.327 90.7813V102.879H244.504V80.5699H250.143V83.8302C250.894 82.6819 251.605 81.8549 252.275 81.3491C253.478 80.4469 255.002 79.9958 256.848 79.9958ZM267.838 84.8964V80.734H270.955V74.5005H276.737V80.734H280.366V84.8964H276.737V96.7071C276.737 97.623 276.853 98.1971 277.086 98.4295C277.318 98.6483 278.029 98.7576 279.218 98.7576C279.396 98.7576 279.58 98.7576 279.772 98.7576C279.977 98.7439 280.175 98.7303 280.366 98.7166V103.084L277.598 103.187C274.837 103.282 272.951 102.804 271.939 101.751C271.283 101.081 270.955 100.049 270.955 98.6551V84.8964H267.838ZM290.127 77.8633H284.201V72.4706H290.127V77.8633ZM284.201 80.5289H290.127V102.879H284.201V80.5289ZM308.191 79.9958C310.502 79.9958 312.388 80.6041 313.851 81.8207C315.327 83.0236 316.065 85.0263 316.065 87.8286V102.879H310.078V89.2844C310.078 88.1088 309.921 87.2066 309.606 86.5778C309.032 85.4295 307.939 84.8554 306.325 84.8554C304.343 84.8554 302.983 85.6961 302.245 87.3775C301.862 88.266 301.671 89.4006 301.671 90.7813V102.879H295.848V80.5699H301.486V83.8302C302.238 82.6819 302.949 81.8549 303.619 81.3491C304.822 80.4469 306.346 79.9958 308.191 79.9958ZM327.302 80.5289V94.0005C327.302 95.2718 327.452 96.2287 327.753 96.8712C328.286 98.0058 329.332 98.5731 330.89 98.5731C332.886 98.5731 334.253 97.7665 334.991 96.1535C335.374 95.2786 335.565 94.1235 335.565 92.6882V80.5289H341.491V102.879H335.811V99.7213C335.757 99.7897 335.62 99.9947 335.401 100.336C335.182 100.678 334.923 100.979 334.622 101.239C333.706 102.059 332.818 102.619 331.956 102.92C331.109 103.221 330.111 103.371 328.963 103.371C325.655 103.371 323.426 102.182 322.278 99.8033C321.636 98.491 321.314 96.5568 321.314 94.0005V80.5289H327.302ZM355.967 84.7529C354.614 84.7529 353.562 85.1766 352.81 86.0242C352.072 86.8717 351.607 88.02 351.415 89.469H360.499C360.403 87.9243 359.932 86.7555 359.084 85.9627C358.25 85.1561 357.211 84.7529 355.967 84.7529ZM355.967 79.9343C357.827 79.9343 359.501 80.2829 360.991 80.98C362.481 81.6772 363.711 82.7776 364.682 84.2813C365.557 85.6072 366.124 87.1451 366.384 88.8948C366.534 89.9201 366.596 91.3964 366.568 93.3239H351.272C351.354 95.5657 352.058 97.1377 353.384 98.0399C354.19 98.6004 355.161 98.8806 356.295 98.8806C357.498 98.8806 358.476 98.5389 359.228 97.8554C359.638 97.4863 360 96.9737 360.314 96.3175H366.281C366.131 97.6435 365.441 98.99 364.21 100.357C362.297 102.53 359.617 103.617 356.172 103.617C353.329 103.617 350.821 102.701 348.647 100.87C346.474 99.0378 345.387 96.0578 345.387 91.9295C345.387 88.061 346.364 85.0946 348.319 83.0305C350.288 80.9663 352.837 79.9343 355.967 79.9343ZM392.753 80.5289H398.679L402.083 96.6251L405.568 80.5289H411.658L405.179 102.879H399.171L395.665 86.5983L392.117 102.879H386.048L379.773 80.5289H386.048L389.534 96.5636L392.753 80.5289ZM420.906 77.8633H414.98V72.4706H420.906V77.8633ZM414.98 80.5289H420.906V102.879H414.98V80.5289ZM424.289 84.8964V80.734H427.406V74.5005H433.188V80.734H436.818V84.8964H433.188V96.7071C433.188 97.623 433.304 98.1971 433.537 98.4295C433.769 98.6483 434.48 98.7576 435.669 98.7576C435.847 98.7576 436.032 98.7576 436.223 98.7576C436.428 98.7439 436.626 98.7303 436.818 98.7166V103.084L434.049 103.187C431.288 103.282 429.402 102.804 428.39 101.751C427.734 101.081 427.406 100.049 427.406 98.6551V84.8964H424.289ZM452.893 79.9548C454.274 79.9548 455.525 80.194 456.646 80.6724C457.78 81.1509 458.71 81.8822 459.434 82.8664C460.049 83.7003 460.425 84.5615 460.562 85.45C460.699 86.3249 460.767 87.7602 460.767 89.756V102.879H454.8V89.2844C454.8 88.0815 454.595 87.1109 454.185 86.3728C453.652 85.3338 452.64 84.8144 451.15 84.8144C449.606 84.8144 448.43 85.3338 447.624 86.3728C446.831 87.398 446.434 88.8675 446.434 90.7813V102.879H440.611V72.7576H446.434V83.4406C447.282 82.1419 448.259 81.2397 449.366 80.734C450.487 80.2145 451.663 79.9548 452.893 79.9548ZM478.401 72.6961H499.829V78.0068H484.676V84.9579H497.942V90.2071H484.676V102.879H478.401V72.6961ZM515.925 92.0116C515.556 92.2439 515.18 92.4353 514.797 92.5857C514.428 92.7224 513.915 92.8522 513.259 92.9753L511.947 93.2213C510.717 93.44 509.835 93.7066 509.302 94.021C508.4 94.5541 507.948 95.3812 507.948 96.5021C507.948 97.5 508.222 98.2245 508.769 98.6756C509.329 99.113 510.006 99.3317 510.799 99.3317C512.056 99.3317 513.211 98.9627 514.264 98.2245C515.33 97.4863 515.884 96.1398 515.925 94.1851V92.0116ZM512.377 89.2844C513.457 89.1477 514.23 88.9769 514.694 88.7718C515.528 88.4164 515.945 87.8628 515.945 87.1109C515.945 86.195 515.624 85.5662 514.982 85.2245C514.353 84.8691 513.423 84.6914 512.193 84.6914C510.812 84.6914 509.835 85.0331 509.261 85.7166C508.851 86.2224 508.577 86.9059 508.441 87.7671H502.802C502.925 85.8123 503.472 84.2061 504.442 82.9485C505.987 80.98 508.639 79.9958 512.398 79.9958C514.845 79.9958 517.018 80.4811 518.918 81.4516C520.819 82.4222 521.769 84.2539 521.769 86.9469V97.1992C521.769 97.9101 521.782 98.7713 521.81 99.7828C521.851 100.548 521.967 101.068 522.158 101.341C522.35 101.615 522.637 101.84 523.019 102.018V102.879H516.663C516.485 102.428 516.362 102.004 516.294 101.608C516.226 101.211 516.171 100.76 516.13 100.254C515.323 101.129 514.394 101.874 513.341 102.489C512.084 103.214 510.662 103.576 509.076 103.576C507.053 103.576 505.379 103.002 504.053 101.854C502.74 100.692 502.084 99.0515 502.084 96.9327C502.084 94.1851 503.143 92.1961 505.262 90.9658C506.424 90.296 508.133 89.8175 510.388 89.5305L512.377 89.2844ZM540.325 88.5463C540.216 87.7124 539.936 86.9606 539.485 86.2907C538.829 85.3885 537.81 84.9374 536.43 84.9374C534.461 84.9374 533.115 85.9148 532.39 87.8696C532.007 88.9085 531.816 90.2892 531.816 92.0116C531.816 93.6519 532.007 94.9711 532.39 95.969C533.087 97.8281 534.4 98.7576 536.327 98.7576C537.694 98.7576 538.665 98.3885 539.239 97.6504C539.813 96.9122 540.161 95.9553 540.284 94.7797H546.251C546.115 96.5568 545.472 98.2382 544.324 99.8239C542.492 102.38 539.779 103.658 536.183 103.658C532.588 103.658 529.943 102.592 528.248 100.46C526.553 98.327 525.706 95.5589 525.706 92.1551C525.706 88.3139 526.642 85.327 528.515 83.1945C530.387 81.062 532.971 79.9958 536.265 79.9958C539.068 79.9958 541.357 80.6246 543.135 81.8822C544.925 83.1398 545.985 85.3612 546.313 88.5463H540.325ZM559.169 84.7529C557.816 84.7529 556.763 85.1766 556.012 86.0242C555.273 86.8717 554.809 88.02 554.617 89.469H563.701C563.605 87.9243 563.133 86.7555 562.286 85.9627C561.452 85.1561 560.413 84.7529 559.169 84.7529ZM559.169 79.9343C561.028 79.9343 562.703 80.2829 564.193 80.98C565.683 81.6772 566.913 82.7776 567.884 84.2813C568.759 85.6072 569.326 87.1451 569.586 88.8948C569.736 89.9201 569.798 91.3964 569.77 93.3239H554.474C554.556 95.5657 555.26 97.1377 556.586 98.0399C557.392 98.6004 558.363 98.8806 559.497 98.8806C560.7 98.8806 561.678 98.5389 562.43 97.8554C562.84 97.4863 563.202 96.9737 563.516 96.3175H569.483C569.333 97.6435 568.642 98.99 567.412 100.357C565.498 102.53 562.819 103.617 559.374 103.617C556.531 103.617 554.023 102.701 551.849 100.87C549.676 99.0378 548.589 96.0578 548.589 91.9295C548.589 88.061 549.566 85.0946 551.521 83.0305C553.489 80.9663 556.039 79.9343 559.169 79.9343ZM585.805 80.0368C588.744 80.0368 591.04 81.0962 592.694 83.215C594.362 85.3338 595.196 88.0678 595.196 91.4169C595.196 94.8891 594.376 97.7665 592.735 100.049C591.095 102.332 588.805 103.474 585.866 103.474C584.021 103.474 582.538 103.105 581.417 102.366C580.747 101.929 580.023 101.163 579.243 100.07V102.879H573.523V72.6961H579.346V83.4406C580.084 82.4017 580.897 81.6088 581.786 81.062C582.839 80.3785 584.178 80.0368 585.805 80.0368ZM584.308 98.6551C585.812 98.6551 586.981 98.0468 587.814 96.8302C588.648 95.6136 589.065 94.0142 589.065 92.0321C589.065 90.4464 588.86 89.1341 588.45 88.0952C587.671 86.1267 586.235 85.1425 584.144 85.1425C582.025 85.1425 580.569 86.1062 579.777 88.0336C579.366 89.0589 579.161 90.3848 579.161 92.0116C579.161 93.9253 579.585 95.511 580.433 96.7687C581.28 98.0263 582.572 98.6551 584.308 98.6551ZM609.426 98.7576C611.135 98.7576 612.447 98.1493 613.363 96.9327C614.279 95.7161 614.737 93.9868 614.737 91.745C614.737 89.5031 614.279 87.7807 613.363 86.5778C612.447 85.3612 611.135 84.7529 609.426 84.7529C607.718 84.7529 606.398 85.3612 605.469 86.5778C604.553 87.7807 604.095 89.5031 604.095 91.745C604.095 93.9868 604.553 95.7161 605.469 96.9327C606.398 98.1493 607.718 98.7576 609.426 98.7576ZM620.868 91.745C620.868 95.0257 619.925 97.8349 618.038 100.172C616.152 102.496 613.288 103.658 609.447 103.658C605.606 103.658 602.742 102.496 600.855 100.172C598.969 97.8349 598.026 95.0257 598.026 91.745C598.026 88.5189 598.969 85.7234 600.855 83.3586C602.742 80.9937 605.606 79.8112 609.447 79.8112C613.288 79.8112 616.152 80.9937 618.038 83.3586C619.925 85.7234 620.868 88.5189 620.868 91.745ZM635.098 98.7576C636.807 98.7576 638.119 98.1493 639.035 96.9327C639.951 95.7161 640.409 93.9868 640.409 91.745C640.409 89.5031 639.951 87.7807 639.035 86.5778C638.119 85.3612 636.807 84.7529 635.098 84.7529C633.39 84.7529 632.07 85.3612 631.141 86.5778C630.225 87.7807 629.767 89.5031 629.767 91.745C629.767 93.9868 630.225 95.7161 631.141 96.9327C632.07 98.1493 633.39 98.7576 635.098 98.7576ZM646.54 91.745C646.54 95.0257 645.597 97.8349 643.71 100.172C641.824 102.496 638.96 103.658 635.119 103.658C631.278 103.658 628.414 102.496 626.527 100.172C624.641 97.8349 623.698 95.0257 623.698 91.745C623.698 88.5189 624.641 85.7234 626.527 83.3586C628.414 80.9937 631.278 79.8112 635.119 79.8112C638.96 79.8112 641.824 80.9937 643.71 83.3586C645.597 85.7234 646.54 88.5189 646.54 91.745ZM650.682 72.7576H656.423V89.0384L663.702 80.6314H670.941L663.128 89.1819L671.248 102.879H664.194L658.843 93.3239L656.423 95.8459V102.879H650.682V72.7576Z" fill="white"/>
</g>
<defs>
<filter id="filter0_d_208_112" x="0.858116" y="0.395077" width="867.342" height="256.334" filterUnits="userSpaceOnUse" color-interpolation-filters="sRGB">
<feFlood flood-opacity="0" result="BackgroundImageFix"/>
<feColorMatrix in="SourceAlpha" type="matrix" values="0 0 0 0 0 0 0 0 0 0 0 0 0 0 0 0 0 0 127 0" result="hardAlpha"/>
<feOffset dy="38.4869"/>
<feGaussianBlur stdDeviation="35.7378"/>
<feColorMatrix type="matrix" values="0 0 0 0 0 0 0 0 0 0 0 0 0 0 0 0 0 0 0.07 0"/>
<feBlend mode="normal" in2="BackgroundImageFix" result="effect1_dropShadow_208_112"/>
<feBlend mode="normal" in="SourceGraphic" in2="effect1_dropShadow_208_112" result="shape"/>
</filter>
</defs>
</svg>
